<mxfile host="Electron" modified="2024-03-01T17:41:36.439Z" agent="Mozilla/5.0 (Windows NT 10.0; Win64; x64) AppleWebKit/537.36 (KHTML, like Gecko) draw.io/22.1.16 Chrome/120.0.6099.109 Electron/28.1.0 Safari/537.36" etag="Ag4kdnX9tM42Ldl6FQJp" version="22.1.16" type="device">
  <diagram name="Page-1" id="if_dPxHvkPRTglUdSo7O">
    <mxGraphModel dx="1084" dy="951" grid="1" gridSize="10" guides="1" tooltips="1" connect="1" arrows="1" fold="1" page="1" pageScale="1" pageWidth="850" pageHeight="1100" math="0" shadow="0">
      <root>
        <mxCell id="0" />
        <mxCell id="1" parent="0" />
        <mxCell id="qkguA2ap4cuJKoMaDYO2-5" style="edgeStyle=orthogonalEdgeStyle;rounded=0;orthogonalLoop=1;jettySize=auto;html=1;entryX=0.5;entryY=0;entryDx=0;entryDy=0;" edge="1" parent="1" source="qkguA2ap4cuJKoMaDYO2-2" target="qkguA2ap4cuJKoMaDYO2-3">
          <mxGeometry relative="1" as="geometry" />
        </mxCell>
        <mxCell id="qkguA2ap4cuJKoMaDYO2-6" style="edgeStyle=orthogonalEdgeStyle;rounded=0;orthogonalLoop=1;jettySize=auto;html=1;exitX=0.25;exitY=1;exitDx=0;exitDy=0;entryX=0.25;entryY=0;entryDx=0;entryDy=0;" edge="1" parent="1" source="qkguA2ap4cuJKoMaDYO2-2" target="qkguA2ap4cuJKoMaDYO2-3">
          <mxGeometry relative="1" as="geometry" />
        </mxCell>
        <mxCell id="qkguA2ap4cuJKoMaDYO2-7" style="edgeStyle=orthogonalEdgeStyle;rounded=0;orthogonalLoop=1;jettySize=auto;html=1;exitX=0.75;exitY=1;exitDx=0;exitDy=0;entryX=0.75;entryY=0;entryDx=0;entryDy=0;" edge="1" parent="1" source="qkguA2ap4cuJKoMaDYO2-2" target="qkguA2ap4cuJKoMaDYO2-3">
          <mxGeometry relative="1" as="geometry" />
        </mxCell>
        <mxCell id="qkguA2ap4cuJKoMaDYO2-2" value="Incoming Requests" style="rounded=0;whiteSpace=wrap;html=1;fillColor=#e1d5e7;strokeColor=#9673a6;" vertex="1" parent="1">
          <mxGeometry x="140" y="360" width="210" height="30" as="geometry" />
        </mxCell>
        <mxCell id="qkguA2ap4cuJKoMaDYO2-3" value="" style="rounded=0;whiteSpace=wrap;html=1;fillColor=#b1ddf0;strokeColor=#10739e;" vertex="1" parent="1">
          <mxGeometry x="140" y="440" width="210" height="20" as="geometry" />
        </mxCell>
        <mxCell id="qkguA2ap4cuJKoMaDYO2-4" value="&amp;lt;Your Code&amp;gt;" style="rounded=0;whiteSpace=wrap;html=1;fillColor=#e1d5e7;strokeColor=#9673a6;" vertex="1" parent="1">
          <mxGeometry x="140" y="470" width="100" height="190" as="geometry" />
        </mxCell>
        <mxCell id="qkguA2ap4cuJKoMaDYO2-11" value="Start" style="edgeStyle=orthogonalEdgeStyle;rounded=0;orthogonalLoop=1;jettySize=auto;html=1;entryX=0;entryY=0.5;entryDx=0;entryDy=0;" edge="1" parent="1" source="qkguA2ap4cuJKoMaDYO2-8" target="qkguA2ap4cuJKoMaDYO2-9">
          <mxGeometry relative="1" as="geometry" />
        </mxCell>
        <mxCell id="qkguA2ap4cuJKoMaDYO2-22" style="edgeStyle=orthogonalEdgeStyle;rounded=0;orthogonalLoop=1;jettySize=auto;html=1;entryX=0.5;entryY=1;entryDx=0;entryDy=0;" edge="1" parent="1" source="qkguA2ap4cuJKoMaDYO2-8" target="qkguA2ap4cuJKoMaDYO2-17">
          <mxGeometry relative="1" as="geometry">
            <Array as="points">
              <mxPoint x="300" y="680" />
              <mxPoint x="470" y="680" />
            </Array>
          </mxGeometry>
        </mxCell>
        <mxCell id="qkguA2ap4cuJKoMaDYO2-8" value="Single&lt;br&gt;JavaScript&lt;br&gt;Thread" style="rounded=0;whiteSpace=wrap;html=1;fillColor=#e1d5e7;strokeColor=#9673a6;" vertex="1" parent="1">
          <mxGeometry x="250" y="470" width="100" height="190" as="geometry" />
        </mxCell>
        <mxCell id="qkguA2ap4cuJKoMaDYO2-9" value="Event Loop" style="rounded=0;whiteSpace=wrap;html=1;fillColor=#ffe6cc;strokeColor=#d79b00;" vertex="1" parent="1">
          <mxGeometry x="600" y="440" width="160" height="40" as="geometry" />
        </mxCell>
        <mxCell id="qkguA2ap4cuJKoMaDYO2-10" value="Handle Event Callbacks" style="rounded=0;whiteSpace=wrap;html=1;fillColor=#fff2cc;strokeColor=#d6b656;" vertex="1" parent="1">
          <mxGeometry x="600" y="490" width="160" height="40" as="geometry" />
        </mxCell>
        <mxCell id="qkguA2ap4cuJKoMaDYO2-15" style="edgeStyle=orthogonalEdgeStyle;rounded=0;orthogonalLoop=1;jettySize=auto;html=1;entryX=0;entryY=0.5;entryDx=0;entryDy=0;" edge="1" parent="1" source="qkguA2ap4cuJKoMaDYO2-12" target="qkguA2ap4cuJKoMaDYO2-14">
          <mxGeometry relative="1" as="geometry" />
        </mxCell>
        <mxCell id="qkguA2ap4cuJKoMaDYO2-16" value="Trigger Callback" style="edgeStyle=orthogonalEdgeStyle;rounded=0;orthogonalLoop=1;jettySize=auto;html=1;entryX=1;entryY=0.5;entryDx=0;entryDy=0;" edge="1" parent="1" source="qkguA2ap4cuJKoMaDYO2-12" target="qkguA2ap4cuJKoMaDYO2-9">
          <mxGeometry x="0.4783" y="-50" relative="1" as="geometry">
            <Array as="points">
              <mxPoint x="680" y="550" />
              <mxPoint x="780" y="550" />
              <mxPoint x="780" y="460" />
            </Array>
            <mxPoint as="offset" />
          </mxGeometry>
        </mxCell>
        <mxCell id="qkguA2ap4cuJKoMaDYO2-12" value="Worker Pool" style="rounded=0;whiteSpace=wrap;html=1;fillColor=#ffe6cc;strokeColor=#d79b00;" vertex="1" parent="1">
          <mxGeometry x="600" y="570" width="160" height="40" as="geometry" />
        </mxCell>
        <mxCell id="qkguA2ap4cuJKoMaDYO2-13" value="Do the Heavy Lifting" style="rounded=0;whiteSpace=wrap;html=1;fillColor=#fff2cc;strokeColor=#d6b656;" vertex="1" parent="1">
          <mxGeometry x="600" y="620" width="160" height="40" as="geometry" />
        </mxCell>
        <mxCell id="qkguA2ap4cuJKoMaDYO2-14" value="Different Thread(s)!" style="rounded=0;whiteSpace=wrap;html=1;fillColor=#f0a30a;strokeColor=#BD7000;fontColor=#FFFFFF;fontStyle=1" vertex="1" parent="1">
          <mxGeometry x="810" y="570" width="160" height="40" as="geometry" />
        </mxCell>
        <mxCell id="qkguA2ap4cuJKoMaDYO2-23" value="Send to" style="edgeStyle=orthogonalEdgeStyle;rounded=0;orthogonalLoop=1;jettySize=auto;html=1;entryX=0;entryY=0.5;entryDx=0;entryDy=0;" edge="1" parent="1" source="qkguA2ap4cuJKoMaDYO2-17" target="qkguA2ap4cuJKoMaDYO2-12">
          <mxGeometry relative="1" as="geometry">
            <Array as="points">
              <mxPoint x="470" y="590" />
            </Array>
          </mxGeometry>
        </mxCell>
        <mxCell id="qkguA2ap4cuJKoMaDYO2-17" value="require(&quot;fs&quot;)" style="rounded=0;whiteSpace=wrap;html=1;fillColor=#b1ddf0;strokeColor=#10739e;" vertex="1" parent="1">
          <mxGeometry x="425" y="620" width="90" height="40" as="geometry" />
        </mxCell>
      </root>
    </mxGraphModel>
  </diagram>
</mxfile>
